# xmcd
#
# Track frame offsets:
#	182
#	21100
#	40185
#
# Disc length: 811 seconds
#
# Revision: 3
# Processed by: cddbd v1.5.2PL0 Copyright (c) Steve Scherf et al.
# Submitted via: FairStars CD Ripper 1.27
#
DISCID=1a032903
DTITLE=Bobby Womack - Forever Love [CD Single]
DYEAR=1994
DGENRE=Soul
TTITLE0=Forever Love
TTITLE1=Color Him Father
TTITLE2=Forever Love (Instrumental)
EXTD=YEAR: 1993
EXTT0=
EXTT1=
EXTT2=
PLAYORDER=
